<mxfile host="app.diagrams.net" modified="2022-01-12T19:01:27.143Z" agent="5.0 (Macintosh; Intel Mac OS X 10_15_7) AppleWebKit/537.36 (KHTML, like Gecko) Chrome/97.0.4692.71 Safari/537.36" etag="2PSj9I4VD9Vh9AunNQ-C" version="16.2.4" type="github">
  <diagram id="_DK03GbpNIv0gi9T_E4w" name="Page-1">
    <mxGraphModel dx="3796" dy="1076" grid="1" gridSize="10" guides="1" tooltips="1" connect="1" arrows="1" fold="1" page="1" pageScale="1" pageWidth="850" pageHeight="1100" math="0" shadow="0">
      <root>
        <mxCell id="0" />
        <mxCell id="1" parent="0" />
        <mxCell id="ZVmLWIIbA3r1RL0WZa9F-1" value="" style="fillColor=none;strokeColor=#5A6C86;verticalAlign=top;fontStyle=0;fontColor=#5A6C86;" vertex="1" parent="1">
          <mxGeometry x="-190" y="140" width="2470" height="970" as="geometry" />
        </mxCell>
        <mxCell id="ZVmLWIIbA3r1RL0WZa9F-2" value="" style="group" vertex="1" connectable="0" parent="1">
          <mxGeometry x="1650" y="340" width="280" height="109" as="geometry" />
        </mxCell>
        <mxCell id="ZVmLWIIbA3r1RL0WZa9F-3" value="Log analyzer" style="rounded=1;whiteSpace=wrap;html=1;" vertex="1" parent="ZVmLWIIbA3r1RL0WZa9F-2">
          <mxGeometry width="220" height="60" as="geometry" />
        </mxCell>
        <mxCell id="ZVmLWIIbA3r1RL0WZa9F-4" value="" style="sketch=0;outlineConnect=0;fontColor=#232F3E;gradientColor=none;fillColor=#3F8624;strokeColor=none;dashed=0;verticalLabelPosition=bottom;verticalAlign=top;align=center;html=1;fontSize=12;fontStyle=0;aspect=fixed;pointerEvents=1;shape=mxgraph.aws4.lambda_function;" vertex="1" parent="ZVmLWIIbA3r1RL0WZa9F-2">
          <mxGeometry x="10" y="10" width="39" height="39" as="geometry" />
        </mxCell>
        <mxCell id="ZVmLWIIbA3r1RL0WZa9F-5" value="Coverage Analyzer" style="rounded=1;whiteSpace=wrap;html=1;" vertex="1" parent="ZVmLWIIbA3r1RL0WZa9F-2">
          <mxGeometry x="60" y="49" width="220" height="60" as="geometry" />
        </mxCell>
        <mxCell id="ZVmLWIIbA3r1RL0WZa9F-6" value="" style="group" vertex="1" connectable="0" parent="1">
          <mxGeometry x="420" y="218" width="100" height="80" as="geometry" />
        </mxCell>
        <mxCell id="ZVmLWIIbA3r1RL0WZa9F-7" value="Github web-hook" style="text;html=1;strokeColor=none;fillColor=none;align=center;verticalAlign=middle;whiteSpace=wrap;rounded=0;" vertex="1" parent="ZVmLWIIbA3r1RL0WZa9F-6">
          <mxGeometry y="50" width="100" height="30" as="geometry" />
        </mxCell>
        <mxCell id="ZVmLWIIbA3r1RL0WZa9F-8" value="" style="triangle;whiteSpace=wrap;html=1;" vertex="1" parent="ZVmLWIIbA3r1RL0WZa9F-6">
          <mxGeometry x="30" width="40" height="45" as="geometry" />
        </mxCell>
        <mxCell id="ZVmLWIIbA3r1RL0WZa9F-9" value="" style="dashed=0;outlineConnect=0;html=1;align=center;labelPosition=center;verticalLabelPosition=bottom;verticalAlign=top;shape=mxgraph.weblogos.github" vertex="1" parent="1">
          <mxGeometry x="200" y="205" width="70" height="70" as="geometry" />
        </mxCell>
        <mxCell id="ZVmLWIIbA3r1RL0WZa9F-10" value="User" style="shape=umlActor;verticalLabelPosition=bottom;verticalAlign=top;html=1;outlineConnect=0;" vertex="1" parent="1">
          <mxGeometry x="-70" y="210" width="30" height="60" as="geometry" />
        </mxCell>
        <mxCell id="ZVmLWIIbA3r1RL0WZa9F-11" value="" style="endArrow=classic;html=1;rounded=0;" edge="1" parent="1" source="ZVmLWIIbA3r1RL0WZa9F-9">
          <mxGeometry width="50" height="50" relative="1" as="geometry">
            <mxPoint x="1320" y="570" as="sourcePoint" />
            <mxPoint x="680" y="240" as="targetPoint" />
          </mxGeometry>
        </mxCell>
        <mxCell id="ZVmLWIIbA3r1RL0WZa9F-12" value="" style="endArrow=classic;html=1;rounded=0;" edge="1" parent="1" source="ZVmLWIIbA3r1RL0WZa9F-10" target="ZVmLWIIbA3r1RL0WZa9F-9">
          <mxGeometry width="50" height="50" relative="1" as="geometry">
            <mxPoint x="1320" y="570" as="sourcePoint" />
            <mxPoint x="1370" y="520" as="targetPoint" />
          </mxGeometry>
        </mxCell>
        <mxCell id="ZVmLWIIbA3r1RL0WZa9F-13" value="" style="edgeStyle=orthogonalEdgeStyle;rounded=0;orthogonalLoop=1;jettySize=auto;html=1;exitX=0.5;exitY=1;exitDx=0;exitDy=0;" edge="1" parent="1" source="ZVmLWIIbA3r1RL0WZa9F-17" target="ZVmLWIIbA3r1RL0WZa9F-15">
          <mxGeometry relative="1" as="geometry">
            <mxPoint x="850" y="640" as="sourcePoint" />
          </mxGeometry>
        </mxCell>
        <mxCell id="ZVmLWIIbA3r1RL0WZa9F-14" value="Merge/Pull Request" style="text;html=1;strokeColor=none;fillColor=none;align=center;verticalAlign=middle;whiteSpace=wrap;rounded=0;" vertex="1" parent="1">
          <mxGeometry x="20" y="245" width="140" height="30" as="geometry" />
        </mxCell>
        <mxCell id="ZVmLWIIbA3r1RL0WZa9F-15" value="Amazon S3" style="sketch=0;outlineConnect=0;fontColor=#232F3E;gradientColor=none;strokeColor=#ffffff;fillColor=#232F3E;dashed=0;verticalLabelPosition=middle;verticalAlign=bottom;align=center;html=1;whiteSpace=wrap;fontSize=10;fontStyle=1;spacing=3;shape=mxgraph.aws4.productIcon;prIcon=mxgraph.aws4.s3;" vertex="1" parent="1">
          <mxGeometry x="880" y="760" width="80" height="100" as="geometry" />
        </mxCell>
        <mxCell id="ZVmLWIIbA3r1RL0WZa9F-16" value="" style="edgeStyle=orthogonalEdgeStyle;rounded=0;orthogonalLoop=1;jettySize=auto;html=1;exitX=1;exitY=0.5;exitDx=0;exitDy=0;" edge="1" parent="1" source="ZVmLWIIbA3r1RL0WZa9F-21" target="ZVmLWIIbA3r1RL0WZa9F-17">
          <mxGeometry relative="1" as="geometry">
            <mxPoint x="920" y="490" as="sourcePoint" />
          </mxGeometry>
        </mxCell>
        <mxCell id="ZVmLWIIbA3r1RL0WZa9F-17" value="Snapshot Service" style="rounded=1;whiteSpace=wrap;html=1;" vertex="1" parent="1">
          <mxGeometry x="860" y="630" width="120" height="60" as="geometry" />
        </mxCell>
        <mxCell id="ZVmLWIIbA3r1RL0WZa9F-18" value="Create or Update commit revision snapshot" style="text;html=1;strokeColor=none;fillColor=none;align=center;verticalAlign=middle;whiteSpace=wrap;rounded=0;" vertex="1" parent="1">
          <mxGeometry x="710" y="730" width="200" height="30" as="geometry" />
        </mxCell>
        <mxCell id="ZVmLWIIbA3r1RL0WZa9F-19" value="Push notification" style="text;html=1;strokeColor=none;fillColor=none;align=center;verticalAlign=middle;whiteSpace=wrap;rounded=0;" vertex="1" parent="1">
          <mxGeometry x="800" y="530" width="110" height="30" as="geometry" />
        </mxCell>
        <mxCell id="ZVmLWIIbA3r1RL0WZa9F-20" value="API Gateway" style="rounded=0;whiteSpace=wrap;html=1;" vertex="1" parent="1">
          <mxGeometry x="680" y="210" width="120" height="60" as="geometry" />
        </mxCell>
        <mxCell id="ZVmLWIIbA3r1RL0WZa9F-21" value="Event Bus" style="rounded=0;whiteSpace=wrap;html=1;" vertex="1" parent="1">
          <mxGeometry x="680" y="400" width="120" height="60" as="geometry" />
        </mxCell>
        <mxCell id="ZVmLWIIbA3r1RL0WZa9F-22" value="" style="endArrow=classic;html=1;rounded=0;entryX=0.5;entryY=0;entryDx=0;entryDy=0;exitX=0.5;exitY=1;exitDx=0;exitDy=0;" edge="1" parent="1" source="ZVmLWIIbA3r1RL0WZa9F-20" target="ZVmLWIIbA3r1RL0WZa9F-21">
          <mxGeometry width="50" height="50" relative="1" as="geometry">
            <mxPoint x="1320" y="460" as="sourcePoint" />
            <mxPoint x="1370" y="410" as="targetPoint" />
          </mxGeometry>
        </mxCell>
        <mxCell id="ZVmLWIIbA3r1RL0WZa9F-23" value="" style="endArrow=classic;html=1;rounded=0;entryX=0.5;entryY=0;entryDx=0;entryDy=0;" edge="1" parent="1" target="ZVmLWIIbA3r1RL0WZa9F-28">
          <mxGeometry width="50" height="50" relative="1" as="geometry">
            <mxPoint x="920" y="430" as="sourcePoint" />
            <mxPoint x="1350" y="430" as="targetPoint" />
            <Array as="points">
              <mxPoint x="1340" y="430" />
            </Array>
          </mxGeometry>
        </mxCell>
        <mxCell id="ZVmLWIIbA3r1RL0WZa9F-24" value="Static code Analyzer Service" style="rounded=1;whiteSpace=wrap;html=1;" vertex="1" parent="1">
          <mxGeometry x="1280" y="630" width="120" height="60" as="geometry" />
        </mxCell>
        <mxCell id="ZVmLWIIbA3r1RL0WZa9F-25" value="" style="endArrow=classic;html=1;rounded=0;exitX=0.5;exitY=1;exitDx=0;exitDy=0;entryX=1;entryY=0.5;entryDx=0;entryDy=0;" edge="1" parent="1" source="ZVmLWIIbA3r1RL0WZa9F-24" target="ZVmLWIIbA3r1RL0WZa9F-26">
          <mxGeometry width="50" height="50" relative="1" as="geometry">
            <mxPoint x="1320" y="730" as="sourcePoint" />
            <mxPoint x="1340" y="740" as="targetPoint" />
            <Array as="points">
              <mxPoint x="1340" y="810" />
            </Array>
          </mxGeometry>
        </mxCell>
        <mxCell id="ZVmLWIIbA3r1RL0WZa9F-26" value="Generate PR report" style="shape=process;whiteSpace=wrap;html=1;backgroundOutline=1;" vertex="1" parent="1">
          <mxGeometry x="1110" y="780" width="120" height="60" as="geometry" />
        </mxCell>
        <mxCell id="ZVmLWIIbA3r1RL0WZa9F-27" value="" style="edgeStyle=orthogonalEdgeStyle;rounded=0;orthogonalLoop=1;jettySize=auto;html=1;" edge="1" parent="1" source="ZVmLWIIbA3r1RL0WZa9F-28" target="ZVmLWIIbA3r1RL0WZa9F-24">
          <mxGeometry relative="1" as="geometry" />
        </mxCell>
        <mxCell id="ZVmLWIIbA3r1RL0WZa9F-28" value="PR Manager Service" style="rounded=1;whiteSpace=wrap;html=1;" vertex="1" parent="1">
          <mxGeometry x="1280" y="520" width="120" height="60" as="geometry" />
        </mxCell>
        <mxCell id="ZVmLWIIbA3r1RL0WZa9F-29" value="" style="endArrow=classic;html=1;rounded=0;exitX=0.5;exitY=1;exitDx=0;exitDy=0;" edge="1" parent="1" source="ZVmLWIIbA3r1RL0WZa9F-24">
          <mxGeometry width="50" height="50" relative="1" as="geometry">
            <mxPoint x="1320" y="910" as="sourcePoint" />
            <mxPoint x="-60" y="290" as="targetPoint" />
            <Array as="points">
              <mxPoint x="1340" y="910" />
              <mxPoint x="-60" y="910" />
            </Array>
          </mxGeometry>
        </mxCell>
        <mxCell id="ZVmLWIIbA3r1RL0WZa9F-30" value="Pre-merge" style="text;html=1;strokeColor=none;fillColor=none;align=center;verticalAlign=middle;whiteSpace=wrap;rounded=0;rotation=270;" vertex="1" parent="1">
          <mxGeometry x="670" y="320" width="110" height="30" as="geometry" />
        </mxCell>
        <mxCell id="ZVmLWIIbA3r1RL0WZa9F-31" value="" style="endArrow=classic;html=1;rounded=0;exitX=1;exitY=0.5;exitDx=0;exitDy=0;" edge="1" parent="1" source="ZVmLWIIbA3r1RL0WZa9F-20" target="ZVmLWIIbA3r1RL0WZa9F-32">
          <mxGeometry width="50" height="50" relative="1" as="geometry">
            <mxPoint x="1320" y="520" as="sourcePoint" />
            <mxPoint x="960" y="240" as="targetPoint" />
          </mxGeometry>
        </mxCell>
        <mxCell id="ZVmLWIIbA3r1RL0WZa9F-32" value="Event Bus" style="rounded=0;whiteSpace=wrap;html=1;" vertex="1" parent="1">
          <mxGeometry x="1490" y="210" width="120" height="60" as="geometry" />
        </mxCell>
        <mxCell id="ZVmLWIIbA3r1RL0WZa9F-33" value="Post-merge" style="text;html=1;strokeColor=none;fillColor=none;align=center;verticalAlign=middle;whiteSpace=wrap;rounded=0;" vertex="1" parent="1">
          <mxGeometry x="1050" y="210" width="190" height="30" as="geometry" />
        </mxCell>
        <mxCell id="ZVmLWIIbA3r1RL0WZa9F-34" value="" style="endArrow=classic;startArrow=classic;html=1;rounded=0;exitX=1;exitY=0.5;exitDx=0;exitDy=0;entryX=0;entryY=0.5;entryDx=0;entryDy=0;" edge="1" parent="1" source="ZVmLWIIbA3r1RL0WZa9F-17" target="ZVmLWIIbA3r1RL0WZa9F-24">
          <mxGeometry width="50" height="50" relative="1" as="geometry">
            <mxPoint x="1320" y="510" as="sourcePoint" />
            <mxPoint x="1370" y="460" as="targetPoint" />
          </mxGeometry>
        </mxCell>
        <mxCell id="ZVmLWIIbA3r1RL0WZa9F-35" value="" style="endArrow=classic;html=1;rounded=0;exitX=0;exitY=0.5;exitDx=0;exitDy=0;" edge="1" parent="1" source="ZVmLWIIbA3r1RL0WZa9F-26" target="ZVmLWIIbA3r1RL0WZa9F-15">
          <mxGeometry width="50" height="50" relative="1" as="geometry">
            <mxPoint x="1320" y="510" as="sourcePoint" />
            <mxPoint x="1370" y="460" as="targetPoint" />
          </mxGeometry>
        </mxCell>
        <mxCell id="ZVmLWIIbA3r1RL0WZa9F-36" value="Store in S3" style="text;html=1;strokeColor=none;fillColor=none;align=center;verticalAlign=middle;whiteSpace=wrap;rounded=0;" vertex="1" parent="1">
          <mxGeometry x="990" y="810" width="90" height="30" as="geometry" />
        </mxCell>
        <mxCell id="ZVmLWIIbA3r1RL0WZa9F-37" value="" style="group" vertex="1" connectable="0" parent="1">
          <mxGeometry x="1759" y="440" width="271" height="109" as="geometry" />
        </mxCell>
        <mxCell id="ZVmLWIIbA3r1RL0WZa9F-38" value="Test report analyzer" style="rounded=1;whiteSpace=wrap;html=1;" vertex="1" parent="ZVmLWIIbA3r1RL0WZa9F-37">
          <mxGeometry width="220" height="60" as="geometry" />
        </mxCell>
        <mxCell id="ZVmLWIIbA3r1RL0WZa9F-39" value="" style="sketch=0;outlineConnect=0;fontColor=#232F3E;gradientColor=none;fillColor=#3F8624;strokeColor=none;dashed=0;verticalLabelPosition=bottom;verticalAlign=top;align=center;html=1;fontSize=12;fontStyle=0;aspect=fixed;pointerEvents=1;shape=mxgraph.aws4.lambda_function;" vertex="1" parent="ZVmLWIIbA3r1RL0WZa9F-37">
          <mxGeometry x="10" y="10" width="39" height="39" as="geometry" />
        </mxCell>
        <mxCell id="ZVmLWIIbA3r1RL0WZa9F-40" value="" style="group" vertex="1" connectable="0" parent="ZVmLWIIbA3r1RL0WZa9F-37">
          <mxGeometry x="51" y="49" width="220" height="60" as="geometry" />
        </mxCell>
        <mxCell id="ZVmLWIIbA3r1RL0WZa9F-41" value="Artifact Analyzer" style="rounded=1;whiteSpace=wrap;html=1;" vertex="1" parent="ZVmLWIIbA3r1RL0WZa9F-40">
          <mxGeometry width="220" height="60" as="geometry" />
        </mxCell>
        <mxCell id="ZVmLWIIbA3r1RL0WZa9F-42" value="" style="sketch=0;outlineConnect=0;fontColor=#232F3E;gradientColor=none;fillColor=#3F8624;strokeColor=none;dashed=0;verticalLabelPosition=bottom;verticalAlign=top;align=center;html=1;fontSize=12;fontStyle=0;aspect=fixed;pointerEvents=1;shape=mxgraph.aws4.lambda_function;" vertex="1" parent="ZVmLWIIbA3r1RL0WZa9F-40">
          <mxGeometry x="10" y="10" width="39" height="39" as="geometry" />
        </mxCell>
        <mxCell id="ZVmLWIIbA3r1RL0WZa9F-43" value="" style="endArrow=classic;html=1;rounded=0;entryX=0.5;entryY=0;entryDx=0;entryDy=0;exitX=1;exitY=0.5;exitDx=0;exitDy=0;" edge="1" parent="1" source="ZVmLWIIbA3r1RL0WZa9F-32" target="ZVmLWIIbA3r1RL0WZa9F-3">
          <mxGeometry width="50" height="50" relative="1" as="geometry">
            <mxPoint x="1550" y="370" as="sourcePoint" />
            <mxPoint x="1370" y="450" as="targetPoint" />
            <Array as="points">
              <mxPoint x="1760" y="240" />
            </Array>
          </mxGeometry>
        </mxCell>
        <mxCell id="ZVmLWIIbA3r1RL0WZa9F-44" value="" style="group" vertex="1" connectable="0" parent="1">
          <mxGeometry x="1870" y="540" width="220" height="60" as="geometry" />
        </mxCell>
        <mxCell id="ZVmLWIIbA3r1RL0WZa9F-45" value="Build Analyzer" style="rounded=1;whiteSpace=wrap;html=1;" vertex="1" parent="ZVmLWIIbA3r1RL0WZa9F-44">
          <mxGeometry width="220" height="60" as="geometry" />
        </mxCell>
        <mxCell id="ZVmLWIIbA3r1RL0WZa9F-46" value="" style="sketch=0;outlineConnect=0;fontColor=#232F3E;gradientColor=none;fillColor=#3F8624;strokeColor=none;dashed=0;verticalLabelPosition=bottom;verticalAlign=top;align=center;html=1;fontSize=12;fontStyle=0;aspect=fixed;pointerEvents=1;shape=mxgraph.aws4.lambda_function;" vertex="1" parent="ZVmLWIIbA3r1RL0WZa9F-44">
          <mxGeometry x="10" y="10" width="39" height="39" as="geometry" />
        </mxCell>
        <mxCell id="ZVmLWIIbA3r1RL0WZa9F-47" value="" style="group" vertex="1" connectable="0" parent="1">
          <mxGeometry x="1920" y="590" width="220" height="60" as="geometry" />
        </mxCell>
        <mxCell id="ZVmLWIIbA3r1RL0WZa9F-48" value="Deployment Analyzer" style="rounded=1;whiteSpace=wrap;html=1;" vertex="1" parent="ZVmLWIIbA3r1RL0WZa9F-47">
          <mxGeometry width="220" height="60" as="geometry" />
        </mxCell>
        <mxCell id="ZVmLWIIbA3r1RL0WZa9F-49" value="" style="sketch=0;outlineConnect=0;fontColor=#232F3E;gradientColor=none;fillColor=#3F8624;strokeColor=none;dashed=0;verticalLabelPosition=bottom;verticalAlign=top;align=center;html=1;fontSize=12;fontStyle=0;aspect=fixed;pointerEvents=1;shape=mxgraph.aws4.lambda_function;" vertex="1" parent="ZVmLWIIbA3r1RL0WZa9F-47">
          <mxGeometry x="11" y="11" width="39" height="39" as="geometry" />
        </mxCell>
        <mxCell id="ZVmLWIIbA3r1RL0WZa9F-50" value="" style="shape=cylinder3;whiteSpace=wrap;html=1;boundedLbl=1;backgroundOutline=1;size=15;" vertex="1" parent="1">
          <mxGeometry x="1950" y="770" width="60" height="80" as="geometry" />
        </mxCell>
        <mxCell id="ZVmLWIIbA3r1RL0WZa9F-51" value="Amazon Elasticsearch Service" style="sketch=0;outlineConnect=0;fontColor=#232F3E;gradientColor=none;strokeColor=#ffffff;fillColor=#232F3E;dashed=0;verticalLabelPosition=middle;verticalAlign=bottom;align=center;html=1;whiteSpace=wrap;fontSize=10;fontStyle=1;spacing=3;shape=mxgraph.aws4.productIcon;prIcon=mxgraph.aws4.elasticsearch_service;" vertex="1" parent="1">
          <mxGeometry x="2040" y="765" width="80" height="120" as="geometry" />
        </mxCell>
        <mxCell id="ZVmLWIIbA3r1RL0WZa9F-52" value="" style="endArrow=classic;html=1;rounded=0;" edge="1" parent="1" target="ZVmLWIIbA3r1RL0WZa9F-50">
          <mxGeometry width="50" height="50" relative="1" as="geometry">
            <mxPoint x="1980" y="650" as="sourcePoint" />
            <mxPoint x="1430" y="630" as="targetPoint" />
          </mxGeometry>
        </mxCell>
        <mxCell id="ZVmLWIIbA3r1RL0WZa9F-53" value="" style="endArrow=classic;html=1;rounded=0;" edge="1" parent="1" target="ZVmLWIIbA3r1RL0WZa9F-51">
          <mxGeometry width="50" height="50" relative="1" as="geometry">
            <mxPoint x="2080" y="650" as="sourcePoint" />
            <mxPoint x="1430" y="630" as="targetPoint" />
          </mxGeometry>
        </mxCell>
        <mxCell id="ZVmLWIIbA3r1RL0WZa9F-54" value="" style="sketch=0;outlineConnect=0;fontColor=#232F3E;gradientColor=none;fillColor=#3F8624;strokeColor=none;dashed=0;verticalLabelPosition=bottom;verticalAlign=top;align=center;html=1;fontSize=12;fontStyle=0;aspect=fixed;pointerEvents=1;shape=mxgraph.aws4.lambda_function;" vertex="1" parent="1">
          <mxGeometry x="1720" y="390.5" width="39" height="39" as="geometry" />
        </mxCell>
        <mxCell id="ZVmLWIIbA3r1RL0WZa9F-55" value="&lt;b&gt;&lt;font color=&quot;#ff3333&quot;&gt;DRAFT&amp;nbsp; VERSION&lt;/font&gt;&lt;/b&gt;" style="text;html=1;strokeColor=none;fillColor=none;align=center;verticalAlign=middle;whiteSpace=wrap;rounded=0;" vertex="1" parent="1">
          <mxGeometry x="1030" y="150" width="210" height="30" as="geometry" />
        </mxCell>
        <mxCell id="ZVmLWIIbA3r1RL0WZa9F-56" value="&lt;font color=&quot;#000000&quot;&gt;Quality Dashboard Service&lt;/font&gt;" style="rounded=1;whiteSpace=wrap;html=1;fontColor=#FF3333;" vertex="1" parent="1">
          <mxGeometry x="960" y="1030" width="420" height="60" as="geometry" />
        </mxCell>
        <mxCell id="ZVmLWIIbA3r1RL0WZa9F-57" value="" style="endArrow=classic;html=1;rounded=0;fontColor=#FF3333;entryX=0.5;entryY=1;entryDx=0;entryDy=0;exitX=0.5;exitY=0;exitDx=0;exitDy=0;" edge="1" parent="1" source="ZVmLWIIbA3r1RL0WZa9F-56" target="ZVmLWIIbA3r1RL0WZa9F-26">
          <mxGeometry width="50" height="50" relative="1" as="geometry">
            <mxPoint x="860" y="590" as="sourcePoint" />
            <mxPoint x="910" y="540" as="targetPoint" />
          </mxGeometry>
        </mxCell>
        <mxCell id="ZVmLWIIbA3r1RL0WZa9F-58" value="" style="endArrow=classic;html=1;rounded=0;fontColor=#000000;exitX=1.007;exitY=0.617;exitDx=0;exitDy=0;exitPerimeter=0;entryX=0.5;entryY=1;entryDx=0;entryDy=0;entryPerimeter=0;" edge="1" parent="1" source="ZVmLWIIbA3r1RL0WZa9F-56" target="ZVmLWIIbA3r1RL0WZa9F-50">
          <mxGeometry width="50" height="50" relative="1" as="geometry">
            <mxPoint x="860" y="590" as="sourcePoint" />
            <mxPoint x="910" y="540" as="targetPoint" />
            <Array as="points">
              <mxPoint x="1980" y="1067" />
            </Array>
          </mxGeometry>
        </mxCell>
      </root>
    </mxGraphModel>
  </diagram>
</mxfile>
